<svg xmlns="http://www.w3.org/2000/svg" viewBox="0 0 24 24" fill="none">
  <!-- Shopping cart icon -->
  <!-- Cart body -->
  <path d="M7 18 C5.9 18 5.01 18.9 5.01 20 S5.9 22 7 22 S9 21.1 9 20 S8.1 18 7 18 Z M17 18 C15.9 18 15.01 18.9 15.01 20 S15.9 22 17 22 S19 21.1 19 20 S18.1 18 17 18 Z" 
        fill="currentColor"/>
  
  <!-- Cart basket -->
  <path d="M7.17 14.75 L7.2 14.63 L8.1 13 L15.55 13 C16.3 13 16.96 12.59 17.3 11.97 L21.16 4.96 L19.42 4 L15.55 11 L8.53 11 L8.4 10.73 L4.27 2 L2 2 L2 4 L3 4 L6.6 11.59 L5.25 14.04 C4.52 15.37 5.48 17 7 17 L19 17 L19 15 L7.42 15 C7.29 15 7.17 14.89 7.17 14.75 Z" 
        fill="currentColor"/>
</svg>
